/* XPM */
static char *acc49e3bffb04a97c38fdbd80d96f338k61Nw8Wvm9bciSKH[] = {
/* columns rows colors chars-per-pixel */
"46 64 90 1 ",
"  c #430F0B",
". c #460E0B",
"X c #450F0C",
"o c #480C0B",
"O c #480E0A",
"+ c #4C0D0A",
"@ c #4B0F0F",
"# c #530E0A",
"$ c #510E0D",
"% c #540F0E",
"& c #491212",
"* c #4D1111",
"= c #4A1413",
"- c #4B1314",
"; c #4B1414",
": c #6F0C0C",
"> c #710B0B",
", c #700C0B",
"< c #720B0C",
"1 c #720C0C",
"2 c #7E0B0A",
"3 c #662723",
"4 c #672925",
"5 c #743733",
"6 c #723534",
"7 c #723634",
"8 c #743834",
"9 c #753834",
"0 c #753936",
"q c #744924",
"w c #794E26",
"e c #7B5128",
"r c #810A0B",
"t c #800C0B",
"y c #800B0C",
"u c #820C0D",
"i c #870E0D",
"p c #8A0D0E",
"a c #8C0E0F",
"s c #8A100E",
"d c #8C0F10",
"f c #8B1111",
"g c #921111",
"h c #901412",
"j c #911314",
"k c #9F1E1A",
"l c #A31312",
"z c #A31214",
"x c #A41214",
"c c #A21415",
"v c #AC1614",
"b c #AC1615",
"n c #B61E1D",
"m c #BB1F1E",
"M c #BE1F1F",
"N c #B6201D",
"B c #BE1F20",
"V c #BF2020",
"C c #BC2324",
"Z c #C1201F",
"A c #C12020",
"S c #C12322",
"D c #C62322",
"F c #C32423",
"G c #C52423",
"H c #C02224",
"J c #C72324",
"K c #C72424",
"L c #C82327",
"P c #C82424",
"I c #B85A31",
"U c #CD5836",
"Y c #D6603A",
"T c #955953",
"R c #975A56",
"E c #995955",
"W c #918F33",
"Q c #979432",
"! c #A99E3B",
"~ c #B09D41",
"^ c #B6A541",
"/ c #BBC249",
"( c #C1CB49",
") c #D4D754",
"_ c #D9D459",
"` c #E1E05C",
"' c #EFE466",
"] c #F3E768",
"[ c #FCEF69",
"{ c #FBF069",
/* pixels */
"&&&&&&&&&&&&&&;;&;;;;;;;;;;;;;;;;;;&&;;;;;&;;;",
"@@@****************************************@@@",
"@77RRRRRRRRRRRRRRRRRRRRRRRRRRRRRRRRRRRRRRRR00@",
"@77EEEEEEEEEEEEEEEEEEEEEEEEEEEEEEEEEEEEEEEE00.",
"@77EEEEEEEEEEEEEEEEEEEEEEEEEEEEEEEEEEEEEEEE00.",
"@77EEEEEEEEEEEEEEEEEEEEEEEEEEEEEEEEEEEEEEEE00.",
"@77EEE4@@@@@@@@@@@@@@@@@@@@@@@@@@@@@@@@4EEE00O",
"@77EEE3OOO++++++++++++++++++++++++++OOO4EEE00O",
"@77EEE3OO:ttyrrrrrrrrrrrrrrrrrrrrrrr,@@4EEE00O",
"@77EEE3OO,rrrrrrrrrrrrrrrrrrrrrrrrrr<XX4EEE00O",
"@77EEE3OO>rrrrrriSSSSSVMMMBmmrrrrrrr1XX4EEE00O",
"@77EEE3OO>rrrrrrpJJPGGDDDDDSSrrrrrrr1XX4EEE00O",
"@77EEE3OO>rrrrrrpJJPGGDDDDDSSrrrrrrr1XX4EEE05O",
"@77EEE3OO>rrrpaagDDDDDDDDDDSSsddprrr1XX4EEE05O",
"@77EEE3OO1rrrmDDDDDDDDDDDDDDDDKKnrrr1XX4EEE05O",
"@77EEE3OO>rrrmDDDDDDDDDDDDDDDDDDnrrr1XX4EEE05O",
"@77EEE3@@flllZDDDDDDDDDDDDDDDDDJVcczfXX4EEE00O",
"@77EEE3@@hbbbSDDDDDDDDDDJDDDDDDDSbbbhXX4EEE00O",
"@77EEE3@@hbbbSDDDDDDDDJJJDDDDDDDSbbbhXX4EEE00O",
"@77EEE3@@hbbbSDDDDDDDDDDDDDDDDDDSbbbhXX4EEE00@",
"@77EEE3@@hbbbSDDDDDJJDDDDJDDDDDDSbbbhXX4EEE00@",
"@77EEE3@@hbbbSDDDDDDDDDDDJDDDDJJSbbbhXX4EEE00@",
"@77EEE3@@hbbbSDDDDDDDDDDDDDDDDDDSbbbhXX4EEE00@",
"@77EEE3@.hbbbSDDDDDDDDDDDDDDDDDDSbbbhXX4EEE00@",
"@77EEE3@@hbbbSDDDDDDDDDDDDDDDDDDSbbbhXX4EEE05O",
"@77EEE3@@gbbbSKKDDDDDDDDDDDDDDDDSbbbhXX4EEE05O",
"@77EEE3OO$%%$%%%VDDJDDJDDDDJDDDDSbbbhXX4EEE55O",
"@77EEE3OO.XXX...CDDDDDJDDDDJDJDDSbbbhXX4EEE55O",
"@77EEE3OO.XXX...CDJJDDDDDDDDDDDDSbbbhXX4EEE00@",
"@77EEE3OO~__'UVVDDJJDDDDDDDDDDDDSbbbhXX4EEE00@",
"@77EEE3OO^``[YGGDDJDDDDDDDDDJJDDSbbbhXX4EEE00@",
"@77EEE3OO^``[IkkDDDDDDDJJDDDDDDDSbbbhXX4EEE00@",
"@77EEE3OO^``{e..VDDDJDDDDDDDDDJDSbbbhXX4EEE00@",
"@77EEE3OO!)){e..VDDDDDDDDDJDDDJDSbbbhXX4EEE00@",
"@77EEE3OOQ(({w..VDDDDDDDDDJDDDDDSbbbhXX4EEE55@",
"@77EEE3@@W//]q..VDDDDJDDDDDDDDDDSbbbhXX4EEE55@",
"@77EEE3@@W//]q..VDDDDDDDDDDDDDDDSbbbgXX4EEE55@",
"@77EEE3OOOOO ...VDDDDDDDDDDDDDDDSbbbgXX4EEE55@",
"@77EEE3OO+++####VDDDDDDDDDDDDDDJSbbbhXX4EEE55@",
"@77EEE3@@jbbbHLLGDDJJDDDDDJJDDDDSbbbhXX4EEE55@",
"@77EEE3@@jbbbSDDDDJDDDJDDDJJDDDDSbbbhXX4EEE55@",
"@77EEE3@@jbbbSDDDDJDDDDDDDDDDDDJSbbbhXX4EEE55@",
"@77EEE3XXhbbbSDDDDDDDDDDDDDDDDDDSbbbhXX4EEE55@",
"@77EEE3XXhbbbSDDDDDDDDDDDDDDDDDDSbbbhXX4EEE55@",
"@77EEE3XXhbbbSDDDJDDJJDDDDDDDDDDSbbbhXX4EEE55@",
"@77EEE3XXhbbbSDDDDDDDDDDDDJDDDDDSbbbhXX4EEE55@",
"@77EEE3XXhbbbSDDDDDDDDDDDDJDDDJJSbbbhXX4EEE55@",
"@77EEE3XXhbbbSDDDDDDDDDDDDDDDDJDSbbbhXX4EEE55@",
"@77EEE3XXhbbbSDDDDDDDDDDDDDDJDDDSbbbgXX4EEE55@",
"@77EEE3XXhbbbSDDDDDDDDDDDDDDDDDDSbbbhXX4EEE55@",
"@77EEE3XXgbbbSDDDDDDDDDDDDDDDDDDSbbbhXX4EEE55@",
"@77EEE3..fxxzVDDDDDDDDDDDDDDDDDDSbbbhXX4EEE55@",
"@77EEE3..fxxzVDDDDDDJDDDDDDDDDDDSbbbhXX4EEE55@",
"@77EEE3OO,rrrmDDDDDJDJDDDDDDDDDDn22r,XX4EEE55@",
"@77EEE3OO,rrrnFFDDDJDDDDDDDDDGGGNrrr,XX4EEE55@",
"@77EEE3OO,rrrrrrMDDDDDDDDDDSStrrrrrr,XX4EEE55@",
"@77EEE3OO,rrrrrrmDDDDDDDDDDVVtrrrrrr,XX4EEE55@",
"@77EEE3OO,rrrrrruuuuuuuuuuuuurrrrrrr,XX4EEE55@",
"*00EEE3OO,rrrrrrrrrrrrrrrrrrrrrrrrrr,XX4EEE00*",
"REEEEE3OO,rrrrrrrrrrrrrrrrrrrrrrrrrr,XX4EEEEEE",
"REEEEE3OO,rrrrrrrrrrrrrrrrrrrrrrrrrr,XX4EEEEEE",
"TEEEEE3OO:yyyyyyyyyyyyyyyyyyyyyyyyyy1XX4EEEEEE",
"@@@@@@@@@@OOOOOOO...................OXX@++++++",
"-------&&;==============================******"
};
