/* XPM */
static char *_c01ef22eab54f39ebca2000f25dc0c8mamous5amlCFm9T8[] = {
/* columns rows colors chars-per-pixel */
"57 60 214 2 ",
"   c None",
".  c #010101",
"X  c #0B0100",
"o  c #0B0904",
"O  c #01040A",
"+  c #0B0B0B",
"@  c #07060B",
"#  c #130200",
"$  c #1A0200",
"%  c #1D0C02",
"&  c #120C07",
"*  c #1F1508",
"=  c #141314",
"-  c #1A1B1C",
";  c #171719",
":  c #040D15",
">  c #230D00",
",  c #2B0E00",
"<  c #251100",
"1  c #2C1203",
"2  c #29170A",
"3  c #331400",
"4  c #3C1E03",
"5  c #371B05",
"6  c #271B14",
"7  c #360500",
"8  c #392313",
"9  c #362518",
"0  c #26211D",
"q  c #191D20",
"w  c #252525",
"e  c #2B2A2B",
"r  c #2E2F31",
"t  c #322F30",
"y  c #343133",
"u  c #3D3C3C",
"i  c #383738",
"p  c #411B00",
"a  c #43260B",
"s  c #492A0A",
"d  c #4B2C13",
"f  c #462C1B",
"g  c #4B321C",
"h  c #4F3117",
"j  c #5B371A",
"k  c #5D3B1D",
"l  c #53351A",
"z  c #6C3A0D",
"x  c #68360D",
"c  c #703B0D",
"v  c #743B06",
"b  c #643B15",
"n  c #6C3B12",
"m  c #643C1C",
"M  c #683D1A",
"N  c #713C13",
"B  c #713C1A",
"V  c #4A3323",
"C  c #433022",
"Z  c #573B28",
"A  c #613B22",
"S  c #5E401E",
"D  c #69421C",
"F  c #774113",
"G  c #7C4315",
"H  c #7B461A",
"J  c #7C4B1C",
"K  c #76441B",
"L  c #574333",
"P  c #5C4028",
"I  c #634123",
"U  c #6B472A",
"Y  c #734C24",
"T  c #7A4E23",
"R  c #724F2A",
"E  c #7E5326",
"W  c #7B5129",
"Q  c #6B4D38",
"!  c #68543B",
"~  c #7A563A",
"^  c #454446",
"/  c #4B4B4B",
"(  c #57575A",
")  c #595959",
"_  c #565456",
"`  c #765949",
"'  c #674F43",
"]  c #656465",
"[  c #6F6D6E",
"{  c #676769",
"}  c #706E6F",
"|  c #6E6E70",
" . c #716F70",
".. c #747274",
"X. c #7D7D7E",
"o. c #767678",
"O. c #83471B",
"+. c #834C20",
"@. c #8C4E25",
"#. c #895227",
"$. c #9B5A26",
"%. c #96572B",
"&. c #965A2D",
"*. c #995A2E",
"=. c #965625",
"-. c #8A5935",
";. c #955C31",
":. c #9A5C32",
">. c #915D38",
",. c #A25D29",
"<. c #996538",
"1. c #AA642B",
"2. c #A6662C",
"3. c #AD6E32",
"4. c #A16D3A",
"5. c #A96B33",
"6. c #AE7439",
"7. c #B77439",
"8. c #B47131",
"9. c #C57D3B",
"0. c #CA7E38",
"q. c #815F46",
"w. c #866649",
"e. c #946843",
"r. c #896A55",
"t. c #956E5C",
"y. c #9B7A5B",
"u. c #AA7545",
"i. c #B97C47",
"p. c #A17B56",
"a. c #957B6A",
"s. c #837D7B",
"d. c #857265",
"f. c #C27E43",
"g. c #C6813B",
"h. c #CB813D",
"j. c #CF8137",
"k. c #D4803B",
"l. c #BD8551",
"z. c #B78150",
"x. c #A6836E",
"c. c #BC8A6C",
"v. c #AD8D79",
"b. c #B88F73",
"n. c #B2927A",
"m. c #C68244",
"M. c #CA8241",
"N. c #CB8443",
"B. c #C4844B",
"V. c #C8874B",
"C. c #D58743",
"Z. c #C78850",
"A. c #DB924D",
"S. c #C48E6B",
"D. c #C58E68",
"F. c #C6916C",
"G. c #C9926C",
"H. c #C59271",
"J. c #CA9776",
"K. c #D19771",
"L. c #D3A17E",
"P. c #7E7D81",
"I. c #807F84",
"U. c #818185",
"Y. c #8F8D8E",
"T. c #86858A",
"R. c #908E8F",
"E. c #919090",
"W. c #9B9B9C",
"Q. c #B69883",
"!. c #BDA392",
"~. c #A2A1A3",
"^. c #ACADAF",
"/. c #BABABA",
"(. c #B2B4B6",
"). c #B0AFB4",
"_. c #C5A38B",
"`. c #D3A281",
"'. c #DBAB8B",
"]. c #CEAB96",
"[. c #D8B499",
"{. c #D1A894",
"}. c #E5AD89",
"|. c #E6B38F",
" X c #EDBD9B",
".X c #E7B796",
"XX c #F3BC95",
"oX c #F1BF9C",
"OX c #FABE9A",
"+X c #D4B7A5",
"@X c #E6BEA3",
"#X c #ECBEA2",
"$X c #EDC09E",
"%X c #E7C19C",
"&X c #F2C09C",
"*X c #F8C19A",
"=X c #ECC1A4",
"-X c #E3C1A9",
";X c #EDC4AA",
":X c #E7C2A7",
">X c #F3C2A1",
",X c #F6C5A5",
"<X c #C4C3C4",
"1X c #CCCBCC",
"2X c #C4C9CC",
"3X c #CED0CF",
"4X c #D1CFD0",
"5X c #CED3D4",
"6X c #D4D2D3",
"7X c #D8D7D9",
"8X c #E8EAEC",
"9X c #F3F3F3",
"0X c #FEFEFE",
"qX c #FFFBF6",
/* pixels */
"                            . . -             . . a 0.N.5 . . .   O . . . X P l.M.m.. .                           ",
"                          ; . 5 . . ;       . . , 0.N.B.N.Z.g O . . X e.i.N.h.j.m.N.. .                           ",
"                          . . m.l.# . . . . O 3 N.N.$.$.N.R . X e.g.j.N.m.m.h.M.m.,.X .                           ",
"      .                 6 O <.9.g.C.f.> X . 1 N.M.h.:.<.4 >.%.*.5.N.M.k.g.m.$.*.*.&.4 .                           ",
"      O . O O .         . . f.M.2.V.j.N.B.7 B.g.g.%.*.*.*.*.*.*.*.*.*.2.*.*.&.*.%.;.~ . O                         ",
"      e . C > . . . . . . # h.m.$.,.*.7.M.M.0.N.f.*.:.*.*.*.*.*.*.*.*.*.%.:.-.U V % . . + .                       ",
"        O 3 h.$.*.;.q.% X . X d B.>.*.*.*.*.1.m.=.*.*.*.*.*.*.*.*.*.*.*.*.*.$.$.f.N.B.z.k > X # . O . . . .       ",
"        . X h.1.*.%.*.$.>.&.Q 2 $ i.:.*.*.;.&.*.:.*.*.*.*.*.*.*.*.*.*.*.*.*.*.*.&.:.:.i.N.N.h.M.m.N.y.. .         ",
"        . . h.7.*.*.*.*.*.*.*.*.*.;.*.*.*.*.*.*.*.*.*.*.*.*.*.*.*.*.*.*.*.:.*.*.*.*.*.:.z G f.C.A.Z.. O           ",
"        . . l.m.*.*.*.*.*.*.*.*.*.&.:.*.*.*.*.*.*.*.*.*.*.*.*.*.*.*.;.&.*.*.*.*.*.*.*.%.K D z z v . . -           ",
"          . 4 h.$.*.*.*.*.*.*.*.*.*.z ;.*.*.*.*.*.*.*.:.O.*.*.*.*.*.z n #.*.*.*.*.*.*.*.*.c N j . .               ",
"        . . > h.5.*.*.*.*.*.*.*.*.*.z n %.*.*.*.*.*.&.H n z &.*.*.*.z n n G &.*.*.*.*.*.*.N M O .                 ",
"        . X V.h.m.*.*.*.*.*.*.*.*.:.z n n %.*.*.*.:.*.n n n z #.:.*.z n n N n H &.*.*.*.&.*.A . .                 ",
"      . # V.C.h.g.*.:.*.*.*.*.*.*.*.G I l n &.&.:.=.n n n n z n N *.F z n $ b n N n >.*.*.*.K . .                 ",
"    . . B.g.h.h.f.*.:.*.*.*.*.*.*.*.O.I X k n +.x M j n n n z m j n n n n I . X I n N c ;.*.:.> . (               ",
"    O p M.k.m.m.$.:.&.*.*.*.*.*.*.*.@.M . X M n M $ . X b z z # . < M n N n > . . # b z z +.&.b . O               ",
"  . X i.h.M.N.$.*.*.*.*.*.*.*.*.*.*.&.n % O . . . X ' o o a m . . . . 1 M N d . . . . X b n z n 8 .               ",
"  . E h.h.M.7.*.*.*.*.*.*.*.*.*.*.*.;.n g . . . X :X=X].. O X . @X+XX O # Z X O {.#XX . . 8 b c n . .             ",
". X B.M.h.M.*.*.*.*.*.*.*.*.*.*.*.*.&.n A . % ;XoX XX # :X# . 2 *X>XoXQ.. . . . XX&X.X:XX . X a m X .             ",
"O X m.h.h.7.*.*.*.*.*.*.*.*.*.*.*.*.*.n n X . XXXX* ! . 6 &Xa.:XXX$X$XoX>XV o r.XXXXoX>X>X. . . O * . .           ",
". X M.h.M.$.*.*.*.*.*.*.*.*.*.*.*.*.<.n n X . &X=X. 6.. # . [.$X$XXXoXoX>XXX'..XoXoXoX;XV X X w.X . O .           ",
". $ h.h.m.*.*.*.*.*.*.*.*.:.*.*.*.*.&.n n X . =X_.# 6.D 4.u.X X {. X=XoXoX XoXoX&X;Xg . 4 6.$ 3.U . o .           ",
". < h.N.1.*.*.*.*.*.*.&.n N z N N H #.n n 2 . =X` 9 R T <.5.3.8.<., X . $ ;XX X X s u.8.6.8.E Y l @     .         ",
". < N.g.*.*.N ;.*.*.&.O.n n n n n n n n z d . v._.X h Y J E H <.4.u.5.p..  XX p.8.2.4.T W +.E f 9 .               ",
". > M.9.@.x n F :.%.&.z n n n n n n n n z l O L  XC . & f h I R T T R 6 # XX. 8 W Y R K k g 6 . .                 ",
". X M.h.c n n n +.*.:.n n n n n n n n z n b . .  X$XXX>X[.L 2 . . . X Z  X X#X8 X X . X 9 d..                     ",
". X N.h.c n n x n *.N n n n n s 3 4 h m m D X . #XOX$X%X XXX.X~ [. XoX XXX$X>X XXXoXw.n.XX_..                     ",
". . m.j.z n n n z J z n z n D X . O . . O . O . @XoXoX&XoX`.$ i 0X-XoXoXoXoX>XXXJ.% - qXQ !..                     ",
"  O i.j.F n n N N B n n n c 5 . f =X$X#X;X_.t.L t.oXoX>X&XD.. . : b.oXoXoXoXoX$XH.X : q 6 _.O                     ",
"  . s N.=.n n D 5 a b c n n . . -XXX$XoXXX&XOX&XXX&XXX XXX}.v.$ Z oXoXoXoXoX*XoX`.J.# $ .X_..                     ",
"  . X V.9.N 9 X O O . A c S . . ,X*XoXoXoX&XoX&X XG.F.F.|.&X X|.oX>XoXXXoXoX&XoX&XXX'. XXXd.O                     ",
"    O R a . . . n.U . . , 1 . Q >XXXoXoXoXoXoXoX.XD.F.S.J.XX&XoXoXoXXX|.J.S.L.&XoXoXoX X&X% .                     ",
"    . . @ .   . r.D.c.` . . . ,XoXoXoXoXoXoXoXoXoXoXoXoX&X&XoX&X&X&X.XXXoXoX&X XoXoXoXXX;XX .                     ",
"    . O       O X H.H.D.b.# ! &XoXoXoXoXoXoXoXoXoXoXoXoX&X&X&X&X&X&X*XoXoXoX&XoXoXoXoXXXa.. .                     ",
"              . O x.F.F.G.D.`. X&X&X&XoXoXoXoXoXoX#X,X[.r.` ` ` x.:X:X=X$XXXoX,X*X&X$X=X. .                       ",
"                . . > H.S.F.S.K.oXoXoXoXoXoXoXoXoX8 . 2X5X6X1X6X3X6X6X^.{ . . X Q.>X[.X .                         ",
"                  O . l J.G.F.F.}.oXoX&XoXoXXXXXoX# = 8XqX0X0X0X0XqX9X8X7X6X5X(.X s.. O                           ",
"                    . O 1 c.D.F.S.'.oX&XoXoXoXXXoXX 0 9X. r 0X0X0X0X0X0X0X0X0X0X. o .                             ",
"                        . . X Z b.H.S..XXX&XoX&X&X# O . qX/.w . 8X0X0X0X0Xw 0X/ . .                               ",
"                            O O O . . . . . . . . X O 0X0X0X9X0X0X0X0X0XqX0X0X/..                                 ",
"                                  . . O O O O O O O O 0X0X0X0X0X0X0X0X6X{ . . .                                   ",
"                                . . . Y.1X) . e U.P.@ . . . O . . . -                                             ",
"                              . . + ).U.P.; . . y U.X.I.U.X.| . . .                                               ",
"                          . . . ] U.U.i O O U.. . y y ) ....( - . . . . .                                         ",
"                      . . . . . @ ^ ^ . . T.I.U.+ . . = ; ; . . . e w . . . . ^                                   ",
"                    . . [ <XW.y . . ; . . . . X.U.X.t . . . e 1X. . . . / w . . .                                 ",
"                  . . i 1XW.~.2X_ . . . u X.. . . . . . . . . . . . . . . . . . . . . . . . . . . . . . . u       ",
"        . . . . . O = U.P.T.I.I.P.P.. . u s.. [ } [ [ [ [ [ [ [ } } [ [ [ [ [ [ [ [ [ [ [ [  .{ ..1X6X6X6XX.. .   ",
"      . + E.<X/ . . o.U.I.P.I.I.U.( . . u s.. [ } [ [ [ [ [ [  ... .[ [ [ [ [ [ [ [ [ [  .../.6X1X6X6X6X4X4X7X^ . ",
"      . i U.U.[ . . X.U.U.P.P.U.X.e . . u X.. Y.Y.Y.Y.Y.Y.Y.Y.Y.Y.Y.Y.Y.Y.Y.Y.Y.Y.Y.Y.W.~.6X6X6X6X6X6X6X6X6X6X7X. ",
"        . w y . . . . ..X.U.P.P.e . . . u X.. Y.Y.Y.Y.Y.Y.Y.Y.Y.Y.Y.Y.Y.Y.Y.Y.Y.Y.Y.Y.R.Y.Y.E.(.6X6X6X6X6X6Xy . . ",
"          u w       . . ; y e i . . ] . u U.. ) ) ) ) E.) ) ) ) ) ) ) ) ) ) Y.o.) ) ) ) ) ) ) ) ) ) ) [ . .       ",
"                      . . . . . . . . . . . . . . . . . . . . . . . . . . . . . . . . . . . . . . . . .           ",
"                      e . . . O . . . . . . . y y y y y y t u y . . . . O O . . . .                               ",
"                    + . w U.U.U.U.U.P.2X<X/ . . = = + + + . . . | I.U.U.U.U.2X<X_ . .                             ",
"                    . + P.U.U.U.U.U.U.~.2X<Xu . . . . . . . . U.P.I.U.U.U.U.W.2X2XX.. .                           ",
"                  . . y y y y y y y y y y y y . .       . . e y y y y y y y y y y t . .                           ",
"                  . . y y y y y y y y y y y y . .       . . y y y y y y y y y y t y . .                           ",
"                  . . . . . . . . . . . . . . . .       . . . . . . . . . . . . . . . .                           ",
"                  . + . . . . . . . . . . . . . .       . . . . . . . . . . . . . . . .                           "
};
